<svg xmlns="http://www.w3.org/2000/svg" version="1.1" xmlns:xlink="http://www.w3.org/1999/xlink" xmlns:svgjs="http://svgjs.com/svgjs" width="100%" height="100%" viewBox="0 0 1000 600"><rect width="1000" height="600" x="0" y="0" fill="#323647"/><g><rect width="333.3333333333333" height="333.3333333333333" rx="13.333333333333334" ry="13.333333333333334" y="217.19940947492915" fill="#efa649" transform="matrix(0.6411005559543883,0,0,0.6411005559543883,0,53.90322610010699)" x="194.9802551269531"/><path d="M238.21944182306618 455.4758381539246L238.21944182306618 455.4758381539246Q236.7307660426132 451.24486488316353 239.86482031725103 442.3389273194011Q242.97275747293355 433.4329897556385 248.4051182156391 422.1242772479871Q253.81136183938938 410.8416818592909 260.5234614109054 398.72333866402465Q267.23556098242136 386.6049954687583 272.8246244388589 376.05367941081096Q278.41368789529633 365.4762462339083 282.0178503111298 358.05898445059876Q285.59589560800805 350.6156055483339 284.8646162772592 348.5784702698193L284.8646162772592 348.5784702698193Q282.6446611660574 347.8471909390706 280.1635348653025 349.1530468868363Q277.6824085645475 350.43278571564673 275.20128226379256 351.71252454445715Q272.72015596303766 352.9922633732676 270.3434981381039 353.1750832059549Q267.9668403131702 353.35790303864206 266.1125248673428 350.6156055483339L266.1125248673428 350.6156055483339Q265.1984257039069 349.3358667195235 265.4857140124153 348.134479247579Q265.74688520196844 346.9330917756345 266.58263300853855 345.8361727795113Q267.41838081510866 344.73925378338794 268.41083133541065 343.90350597681794Q269.42939897466795 343.09387528920314 270.1606783054167 342.51929867218615L270.1606783054167 342.51929867218615Q291.10660770757954 328.75557698273514 309.91093335540654 321.05102689091706Q328.74137612218885 313.3203596801438 343.70648528358447 310.5780621898357Q358.6715944449801 307.83576469952754 368.85727083755296 309.48114319371246Q379.06906434908126 311.12652168789725 382.90828083551264 316.1671256462732Q386.7736144408992 321.23384672360424 383.37838897670827 329.22568512393076Q379.9831635125173 337.2175235242573 367.7603518414297 347.1159116083217Q355.56365728929757 357.04041681134146 333.41634041519023 368.3230122000377Q311.2951406600382 379.6317247076892 277.86522839723466 391.38442823758106L277.86522839723466 391.38442823758106Q276.0370300703627 394.3095455605763 278.88379603649196 397.9920593332758Q281.73056200262135 401.64845598702 287.3196254590588 405.9838977336022Q292.93480603445164 410.2932223612293 300.56100476940367 414.88983529736475Q308.1610863854004 419.4864482335002 315.9701049530397 424.1614125265017Q323.7791235206789 428.8363768195031 330.8568627575694 433.32852127981727Q337.93460199445974 437.8467828590869 342.50509781164 441.86881917820534Q347.1017107477754 445.9169726162792 348.4859180524071 449.41666655629143Q349.8701253570389 452.89024337734844 346.0047917516522 455.4758381539246L346.0047917516522 455.4758381539246Q345.821971918965 455.6586579866119 343.70648528358447 454.0916308492929Q341.59099864820394 452.52460371197407 338.4830614925214 450.04347741121904Q335.3490072178836 447.56235111046414 331.77096192100544 444.6372337874688Q328.1929166241272 441.68599934551816 324.9805109926234 439.1265216878973Q321.76810536111964 436.54092691132115 319.4697988930519 434.71272858444905Q317.1714924249842 432.88453025757696 316.8058527596097 432.5188905922026L316.8058527596097 432.5188905922026Q305.7844285604667 425.54561983113337 294.76300436132374 418.729051783796Q283.74158016218064 411.9386008554141 273.29473258005453 403.5027714328473L273.29473258005453 403.5027714328473Q269.7950386400423 402.40585243672405 266.2953447000301 407.1591680865915Q262.8217678789731 411.9386008554141 259.5048937716481 419.38197975767895Q256.2141367832784 426.8253586599438 253.00173115177458 435.1828367256447Q249.7893255202708 443.54031479134557 247.0209109110074 449.67783774584467Q244.27861342069932 455.8414778192991 242.0586583094975 458.1397842873668Q239.86482031725103 460.43809075543453 238.21944182306618 455.4758381539246ZM281.91338183530854 376.68049026573857L281.91338183530854 378.90044537694035Q285.9615352733824 380.1801842057508 292.8303375586304 378.71762554425317Q299.72525696283356 377.22894976380013 308.08273502853444 373.75537294274324Q316.44021309423533 370.25567900273103 325.5289704906851 365.2934264012211Q334.6177278871347 360.33117379971117 342.87073747701436 354.9249301759609Q351.1498641858493 349.5186865522107 358.01866647109716 344.0079744526392Q364.91358587530044 338.4972623530677 368.778919480687 333.7961809411109Q372.6181359671184 329.1212166481095 372.90542427562684 325.8304596597398Q373.1927125841354 322.5135855524148 368.41327981531265 321.59948638897873L368.41327981531265 321.59948638897873Q348.56426940927304 321.23384672360424 334.6177278871347 323.5321531916721Q320.6711863649964 325.8304596597398 310.74668116197665 332.07245109006016Q300.8221759589568 338.3144425203805 294.0317250305749 349.1530468868363Q287.24127410219285 359.9655341343368 281.91338183530854 376.68049026573857L281.91338183530854 376.68049026573857ZM374.655271245633 455.4758381539246L374.655271245633 455.4758381539246Q366.55896436948524 449.41666655629143 363.63384704649 440.5890803493949Q360.6826126045394 431.7876112614537 361.8056487196179 421.39299791723823Q362.90256771574116 411.02450169197806 367.3163608191894 399.74190630328195Q371.70403680368236 388.4331937956304 378.23331654251126 377.5945894291746Q384.76259628134005 366.782102181674 392.9111373953983 356.9359483355202Q401.08579562841203 347.1159116083217 409.6260935268001 339.67253270605687Q418.1663914251882 332.25527092274734 426.52386949088907 327.73700934347784Q434.88134755658996 323.24486488316353 441.8546183176592 322.87922521778916L441.8546183176592 322.87922521778916Q445.1714924249842 321.9651260543531 448.56671788917515 323.06204505047634Q451.9619433533661 324.1589640465996 454.70424084367426 326.4572705146673Q457.4726554529376 328.75557698273514 459.3008537798097 331.88963125737286Q461.155169225637 334.9975684130554 461.70362872369867 338.02715421187196Q462.25208822176023 341.05674001068854 460.9462322739945 343.72068614413075Q459.6664934451841 346.38463227757285 456.1929166241272 347.66437110638327L456.1929166241272 347.66437110638327Q455.6444571260655 348.03001077175776 454.443069654121 348.03001077175776Q453.24168218217653 348.03001077175776 453.24168218217653 347.66437110638327L453.24168218217653 347.66437110638327L453.24168218217653 333.1693700861834Q453.24168218217653 332.8037304208089 452.3275830187405 332.3336222796133Q451.41348385530443 331.88963125737286 450.21209638335995 331.6023429488644Q449.01070891141546 331.3411717593113 447.8354385584263 331.1322348076688Q446.6340510864818 330.9494149749816 445.90277175573294 331.1322348076688L445.90277175573294 331.1322348076688Q427.72525696283356 335.72884774380424 414.7711659609972 346.56745211026004Q401.8170749591609 357.40605647671595 393.1984257039069 372.2666971622903L393.1984257039069 372.2666971622903Q380.89726267595336 393.7610860625147 375.2820821005606 408.09938436898284Q369.6930186441231 422.41156555649553 369.04009067024026 430.84739497906236Q368.41327981531265 439.3093415205845 372.06967646905684 442.70456698477545Q375.75219024175624 446.0997924489664 381.9941816720766 445.73415278359204Q388.23617310239695 445.36851311821766 396.5152998112319 441.9732876540267Q404.76830940111154 438.57806218983563 413.3086072994996 433.51134111250457Q421.8489051978877 428.4707371541287 429.91909495508 422.3332141996296Q438.0154018312278 416.1695741261752 444.07457342886096 410.4760421939165Q450.133745026494 404.7825102616577 453.3461506579978 400.1075459686563Q456.55855628950155 395.40646455669963 455.4616372933783 393.21262656445305L455.4616372933783 393.21262656445305Q452.51040285142767 392.6641670663915 449.01070891141546 393.4999148729616Q445.53713209035857 394.3095455605763 442.9515373137824 395.22364472401233L442.9515373137824 395.22364472401233Q441.3061588195975 395.772104222074 436.8140143592833 397.26078000252693Q432.3218698989691 398.72333866402465 427.3596172974592 400.36871715820945Q422.39736469594925 402.0402127713497 417.983571592501 403.5027714328473Q413.56977848905274 404.965330094345 411.9243999948678 405.69660942509375L411.9243999948678 405.69660942509375Q409.364922337247 406.6107085885298 407.6150753672408 405.25261840285344Q405.86522839723466 403.86841109822166 405.21230042335185 401.7529244628411Q404.58548956842424 399.6374378274606 405.1339490664859 397.70477102476735Q405.6824085645475 395.772104222074 407.69342672410676 395.22364472401233L407.69342672410676 395.22364472401233Q410.6446611660574 394.67518522595077 418.08804006832224 392.01123909250856Q425.50530185163177 389.34729295906646 434.88134755658996 386.1348873275627Q444.25739326154815 382.9224816960589 454.1557813456126 379.8145445403764Q464.08028654863233 376.68049026573857 471.6020168077631 375.21793160424085Q479.1498641858492 373.75537294274324 483.09354914810183 374.7478234630452Q487.03723411035446 375.7663911023025 484.6605762854208 380.72864370381245L484.6605762854208 380.72864370381245Q482.9890806722806 382.55684203068444 478.5752875688323 387.07510360995406Q474.1876115843394 391.56724807026825 469.22535898282945 396.52950067177807Q464.2631063813195 401.4656361543327 459.7709619210053 405.87942925778094Q455.27881746069113 410.2932223612293 453.4245020148637 411.9386008554141L453.4245020148637 411.9386008554141Q452.69322268411497 412.4870603534758 449.297997219924 415.4382947954263Q445.90277175573294 418.36341211842165 441.59344712810605 421.9414574152999Q437.25800538152373 425.54561983113337 433.05314922971786 429.1236651280115Q428.8221759589568 432.70171042488977 426.44551813402313 434.52990875176175L426.44551813402313 434.52990875176175Q424.04274319013416 436.54092691132115 420.38634653638996 439.67498118595887Q416.70383276369057 442.7829183416414 412.2116883033764 446.0214410921005Q407.69342672410676 449.23384672360436 402.75729124155225 452.08061268973364Q397.7950386400423 454.92737865586304 392.8327860385324 456.57275715004783Q387.8705334370226 458.21813564423275 383.1955691440211 458.21813564423275Q378.4944877320644 458.21813564423275 374.655271245633 455.4758381539246Z " fill="#ffffff" transform="matrix(0.6411005559543883,0,0,0.6411005559543883,0,53.90322610010699)"/><path d="M627.9661016282417 455.81286997698606L627.9661016282417 455.81286997698606Q617.5163142297107 451.41920936624007 614.1913818756326 443.5818688173417Q610.8367626255359 435.77421516446196 611.9054908822039 426.69002498278434Q612.9445322428534 417.6058348011067 617.0116369973952 408.43258393137336Q621.0787417519372 399.22964616562155 625.4724023626833 392.13447801718706L625.4724023626833 392.13447801718706Q626.9270602675923 389.6407787516285 630.87541743806 383.58465196384344Q634.8534615045463 377.5285251760584 639.3361828033482 370.73022598780943Q643.8189041021498 363.96161369557905 647.9156957527102 358.0242344918682Q651.9828005072521 352.05716839213875 653.6452666842912 349.7712773987101L653.6452666842912 349.7712773987101Q656.1389659498499 333.6809797566537 663.6497506425441 324.18117303071625Q671.1902222312568 314.7110532007975 680.6603420611757 311.1486256785709Q690.160148787113 307.5861981563444 700.1943196413844 309.5752201895875Q710.1988035996372 311.5642422228307 717.7095882923314 318.5703496832095Q725.2500598810443 325.5467702475698 728.5749922351223 337.24340727888017Q731.929611485219 348.94004431019056 728.0703150028069 364.58503851196866Q724.1813316243763 380.23003271374677 711.683148400565 399.64526270988137Q699.1552782807349 419.06049270601585 674.9307711295947 441.6225336801171L674.9307711295947 441.6225336801171Q670.7449187909785 445.5708908505848 665.0153478593976 449.222379060867Q659.2857769278165 452.8738672711492 652.9030942838274 455.18944516059645Q646.5500985358568 457.4753361540251 640.078355203812 457.89095269828493Q633.6066118717671 458.30656924254464 627.9661016282417 455.81286997698606ZM620.6631252076774 439.30695579066986L620.6631252076774 439.30695579066986Q622.7412079289762 448.7177018285516 628.5895264446314 451.00359282198025Q634.4378449602866 453.2894838154089 642.3642461972406 450.1723597334607Q650.2906474341946 447.02554875549407 659.7013934720763 439.51476406279977Q669.0824526139395 432.00397937010547 678.4931986518212 421.8807478277785Q687.8742577936844 411.75751628545146 696.424083847028 399.85307098201116Q705.0035967963902 387.94862567857086 711.3565925443609 376.28167554327905Q717.7095882923314 364.58503851196866 721.0642075424281 353.9274428413077Q724.3891398965062 343.2995340666652 723.2610378478012 335.46219351776693Q722.1032489030775 327.62485296886854 715.7502531551069 323.6764957984008Q709.3675705111177 319.69845173191453 696.2162755748981 321.39060480497216L696.2162755748981 321.39060480497216Q691.436685315911 325.5467702475698 683.4805971829384 333.591919068598Q675.5541959459844 341.63706788962617 666.5887533483809 351.84936012000884Q657.5936238547589 362.0913392464101 648.6281812571556 373.8770369657762Q639.6627386595522 385.6627346851422 632.7753787832476 397.3593717164526Q625.888018906943 409.0560087477631 622.3255913847164 419.8917257945354Q618.7928507585085 430.75712973732624 620.6631252076774 439.30695579066986ZM729.6140335957717 455.81286997698606L729.6140335957717 455.81286997698606Q723.5579068079867 451.41920936624007 721.8063799428919 444.7396577620653Q720.0251661817787 438.06010615789063 721.272015814558 430.22276560899223Q722.5188654473372 422.4151119561125 725.7547371133596 414.0434072788801Q728.9906087793821 405.7013894976664 732.8499052617942 397.9827965328423Q736.7092017442062 390.2642035680181 740.3606899544884 383.79246023597335Q744.0121781647706 377.3207169039285 746.1199477820879 373.1348645653123L746.1199477820879 373.1348645653123Q746.7433725984775 371.88801493253305 749.1480111759805 367.07873777752724Q751.5526497534834 362.29914751854 754.2541572911719 356.65863727501466Q756.9556648288603 351.0181270314893 759.3603034063632 346.1197891884279Q761.764941983866 341.1917644493479 762.3883668002557 339.94491481656866L762.3883668002557 339.94491481656866Q763.0117916166454 338.9058734559192 764.169580561369 335.87781006202664Q765.3273695060925 332.8497466681342 766.7820274110018 329.31700604192616Q768.2366853159109 325.7545785196997 770.0178990770241 322.5187068536772Q771.7991128381374 319.2828351876548 773.7584479753621 317.8281772827457Q775.7474700086052 316.37351937783643 777.7364920418482 317.41256073848587Q779.7255140750914 318.4516020991353 781.5957885242603 323.6764957984008L781.5957885242603 323.6764957984008Q780.7645554357408 325.7545785196997 777.5286837697184 332.01851357961465Q774.292812103696 338.2824486395296 769.89915149295 347.04008296500314Q765.5351777782224 355.82740418649513 760.1915364948827 366.4553129611376Q754.8775821075615 377.1129086317986 749.8604966804257 387.94862567857086Q744.8730981493087 398.81402962136184 740.4794375385626 409.1450694358187Q736.0857769278166 419.47610925027556 733.2655218060539 427.93687461556357Q730.4452666842913 436.3976399808516 729.9405894519758 441.9194026403026Q729.4062253236418 447.4411652997538 731.929611485219 448.7177018285516L731.929611485219 448.7177018285516Q734.8389272950373 450.1723597334607 739.5294568659689 449.8458038772566Q744.2199864369004 449.5489349170711 749.2370718640361 448.7177018285516Q754.2541572911719 447.8567818440135 759.0634344461776 446.93648806743835Q763.8430247051649 445.98650739484464 767.4054522273914 446.19431566697443L767.4054522273914 446.19431566697443Q768.2366853159109 448.0645901161434 766.1586025946121 449.8458038772566Q764.0508329772947 451.62701763836986 760.3102840789569 452.9926148552234Q756.5400482846005 454.32852517605835 751.6417104415391 455.27850584865206Q746.7433725984775 456.2284865212459 742.2606512996758 456.6441030655056Q737.7482431048556 457.0597196097654 734.3045631667034 456.8519113376355Q730.8608832285511 456.6441030655056 729.6140335957717 455.81286997698606ZM788.4831484005649 455.81286997698606L788.4831484005649 455.81286997698606Q797.0329744539085 428.26343047176766 804.0390819142874 412.08407214165555Q811.0155024786477 395.90471381154344 815.7357189455978 389.4329704794986Q820.4262485165294 382.9612271474538 822.0887146935684 385.2471181408825Q823.7511808706074 387.53300913431116 821.7918457333828 396.9437551721929Q819.8028237001397 406.324814314056 813.4201410561506 422.08855609990843Q807.06714530818 437.8522978857607 795.5783165489994 458.09876097041473L795.5783165489994 458.09876097041473Q793.9158503719603 458.72218578680435 791.6299593785317 458.30656924254464Q789.3143814890844 457.89095269828493 788.4831484005649 455.81286997698606ZM825.0277173994053 355.4117876422354L825.0277173994053 355.4117876422354Q824.5824139591269 354.3430593855674 824.5824139591269 351.64155184787904Q824.5824139591269 348.94004431019056 825.0277173994053 348.31661949380094L825.0277173994053 348.31661949380094Q829.8073076583926 346.6244664207433 832.3306938199696 347.87131605352255Q834.8243930855282 349.14785258232047 835.4478179019178 351.5524911598233Q836.0712427183075 353.9274428413077 835.3587572138622 356.65863727501466Q834.6165848133984 359.36014481270314 832.9541186363593 360.72574202955667Q831.2619655633017 362.0913392464101 829.0948221539472 361.1413585738164Q826.8979918485742 360.19137790122267 825.0277173994053 355.4117876422354ZM851.092812103696 453.2894838154089L851.092812103696 453.2894838154089Q846.7288383889685 450.79578454985045 844.8585639397995 445.3630825784549Q842.9586025946121 439.9303806070595 842.7507943224823 433.0430207307549Q842.5429860503523 426.15566085445033 843.5820274110017 418.64487616175603Q844.6210687716512 411.13409146906184 846.1054135725789 404.03892332062736Q847.560071477488 396.9437551721929 849.0147293823971 391.30324492866754Q850.4693872873063 385.6627346851422 851.092812103696 382.545610603194L851.092812103696 382.545610603194Q852.1615403603639 381.9221857868044 853.289642409069 382.545610603194Q854.4474313537926 383.16903541958374 855.6052202985163 384.2971374682888Q856.7333223472212 385.4549264130124 857.4754947476852 386.4049070856061Q858.217667148149 387.32520086218125 858.217667148149 387.32520086218125L858.217667148149 387.32520086218125Q858.8410919645387 394.62817728274564 858.3067278362047 401.6342847431245Q857.7723637078707 408.64039220350327 857.0598782034253 415.52775207980784Q856.3177058029615 422.4151119561125 855.8130285706461 429.510280104547Q855.2786644423121 436.6054482529815 855.6942809865719 443.90842467354577L855.6942809865719 443.90842467354577Q857.356747163611 447.02554875549407 862.5816408628765 443.9974853616015Q867.8065345621421 440.9694219677089 875.3173192548363 434.2008096754785Q882.8281039475305 427.40251048722956 891.7044858570782 418.1401989294406Q900.5808677666259 408.8482004756332 909.2494414040439 399.64526270988137Q917.8883281454432 390.472011840148 925.6366080062858 382.4268630191198Q933.35520097111 374.38171419809163 938.6691553584312 370.1068011714198Q943.9831097457524 365.831888144748 946.0908793630698 366.5740605452118Q948.1689620843686 367.28654604965715 945.4674545466801 375.4504424547595L945.4674545466801 375.4504424547595Q940.4503691195445 379.81441616948706 933.5630092432399 388.60173739097917Q926.6756493669352 397.3593717164526 918.5414398578514 407.48260325877965Q910.377543452749 417.6058348011067 901.6199091272754 427.6103187593595Q892.8622748018018 437.6444896136308 883.9858928922542 444.8584053461396Q875.1095109827063 452.0426341826297 866.7674932014927 454.86288930439235Q858.4254754202789 457.683144426155 851.092812103696 453.2894838154089ZM967.7920003526331 455.81286997698606L967.7920003526331 455.81286997698606Q961.5280652927181 453.70510035966873 958.2921936266956 449.4301873329969Q955.0563219606731 445.1552743063251 954.0172806000238 439.9303806070595Q952.9782392393744 434.70548690779395 953.6907247438197 428.975915976213Q954.4328971442835 423.24634504463194 956.0953633213226 418.0214513453664L956.0953633213226 418.0214513453664Q962.3592983812375 411.34189974119175 970.1966389301358 402.67332610377383Q978.0042925830156 394.004752466356 986.7916138045077 385.6627346851422Q995.5492481299813 377.3207169039285 1005.0490548559186 370.1068011714198Q1014.548861581856 362.9225723349296 1024.3455372679791 359.15233654057323L1024.3455372679791 359.15233654057323Q1027.7001565180758 357.6976786356641 1029.689178551319 359.2710841246474Q1031.6485136885435 360.8148027176123 1032.5094336730813 364.16942196770896Q1033.340666761601 367.49435432178694 1033.2219191775266 371.88801493253305Q1033.1328584894713 376.28167554327905 1032.5094336730813 380.4378409858767Q1031.8860088566917 384.6236933244929 1030.8172806000239 387.94862567857086Q1029.7782392393742 391.30324492866754 1028.739197878725 392.5500945614469L1028.739197878725 392.5500945614469Q1026.2454986131665 395.48909726728374 1019.0315828806578 399.43745443775146Q1011.8473540441676 403.41549850423775 1003.0600328226756 408.10602807516926Q994.3023984972019 412.7965576461009 985.5447641717285 417.8136430732365Q976.7574429502364 422.83072850037223 971.116932706711 427.72906634343366Q965.5061093592043 432.6274041864952 964.4373811025364 437.436681341501Q963.398339741887 442.2459584965067 970.2856996181915 446.19431566697443L970.2856996181915 446.19431566697443Q977.380867766626 447.02554875549407 987.5040993089531 445.4818301625292Q997.62733085128 443.90842467354577 1008.1661789378668 441.295977823913Q1018.7347139204721 438.68353097428025 1028.5313896065954 435.8632758525176Q1038.3280652927183 433.0430207307549 1044.592000352633 431.38055455371585L1044.592000352633 431.38055455371585L1047.11538651421 433.6664455471445Q1042.5139176313342 439.7225723349297 1032.0938171288217 444.7396577620653Q1021.6440297302905 449.756743189201 1009.5317761547203 452.9926148552234Q997.4195225791502 456.2284865212459 985.9603807159883 457.148780297821Q974.4715519568077 458.09876097041473 967.7920003526331 455.81286997698606ZM1017.6659856638042 376.07386727114914L1017.6659856638042 376.07386727114914Q1017.4581773916743 375.86605899901934 1014.548861581856 377.8253941362439Q1011.6098588760192 379.81441616948706 1007.3349458493474 383.05028783550944Q1003.0600328226756 386.2861595015319 998.1616949796141 390.1454559839439Q993.2633571365526 394.004752466356 989.1962523820107 397.3593717164526Q985.1291476274687 400.6843040705307 982.3979531937617 403.08894264803365Q979.6964456560733 405.4935812255365 980.112062200333 405.4935812255365L980.112062200333 405.4935812255365Q983.4369945544111 406.1170060419261 988.7806358377509 404.5436005529428Q994.0945902250721 402.9998819599779 999.8241611566532 400.06087925414107Q1005.5834189842526 397.1515634443228 1010.7786257874997 393.5000752340406Q1016.0035194867652 389.8485870237584 1019.0315828806578 386.2861595015319Q1022.0596462745502 382.7534188753239 1022.1783938586245 380.02222444161697Q1022.26745454668 377.3207169039285 1017.6659856638042 376.07386727114914ZM1043.1373424477238 455.81286997698606L1043.1373424477238 455.81286997698606Q1051.6871685010674 428.26343047176766 1058.6932759614465 412.08407214165555Q1065.6993834218251 395.90471381154344 1070.3899129927568 389.4329704794986Q1075.0804425636884 382.9612271474538 1076.7429087407277 385.2471181408825Q1078.4053749177665 387.53300913431116 1076.446039780542 396.9437551721929Q1074.4570177472988 406.324814314056 1068.0743351033093 422.08855609990843Q1061.7213393553388 437.8522978857607 1050.2325105961586 458.09876097041473L1050.2325105961586 458.09876097041473Q1048.5700444191193 458.72218578680435 1046.2841534256909 458.30656924254464Q1043.9685755362434 457.89095269828493 1043.1373424477238 455.81286997698606ZM1079.6819114465643 355.4117876422354L1079.6819114465643 355.4117876422354Q1079.2662949023047 354.3430593855674 1079.2662949023047 351.64155184787904Q1079.2662949023047 348.94004431019056 1079.6819114465643 348.31661949380094L1079.6819114465643 348.31661949380094Q1084.4615017055517 346.6244664207433 1086.9848878671287 347.87131605352255Q1089.4785871326872 349.14785258232047 1090.1020119490768 351.5524911598233Q1090.7254367654664 353.9274428413077 1090.012951261021 356.65863727501466Q1089.2707788605571 359.36014481270314 1087.6083126835183 360.72574202955667Q1085.945846506479 362.0913392464101 1083.7490162011063 361.1413585738164Q1081.5521858957331 360.19137790122267 1079.6819114465643 355.4117876422354ZM1099.9283745312182 455.81286997698606L1099.9283745312182 455.81286997698606Q1099.5127579869586 455.60506170485615 1100.017435219274 450.88484523790606Q1100.5517993476078 446.19431566697443 1101.5908407082575 439.09914751853995Q1102.6298820689067 432.00397937010547 1104.292348245946 423.45415331676185Q1105.9845013190034 414.9043272634182 1107.8547757681722 407.06698671451994Q1109.725050217341 399.22964616562155 1111.9218805227142 393.2922669619107Q1114.1187108280874 387.32520086218125 1116.1967935493863 385.0393098687526L1116.1967935493863 385.0393098687526Q1117.651451454295 383.58465196384344 1119.1357962552229 384.95024918069697Q1120.5904541601321 386.2861595015319 1122.0451120650414 388.2751815347751Q1123.4997699699502 390.2642035680181 1124.9544278748594 391.83760905700154Q1126.4387726757873 393.3813276499664 1128.101238852826 392.13447801718706L1128.101238852826 392.13447801718706Q1133.9495573684817 384.00026850810315 1140.9259779328418 376.57854450346457Q1147.9320853932204 369.18650739484457 1156.481911446564 363.75380542344914L1156.481911446564 363.75380542344914Q1157.3131445350837 363.1303806070595 1161.08338032944 361.764783390206Q1164.823929227778 360.3991861733526 1169.633206382784 359.0632758525176Q1174.4424835377895 357.6976786356641 1179.5486296529812 356.7476979630704Q1184.6547757681724 355.82740418649513 1188.3062639784544 355.91646487455085Q1191.9577521887368 356.03521245862504 1193.3233494055899 357.7867393237197Q1194.6889466224438 359.56795308483305 1191.9577521887368 363.75380542344914L1191.9577521887368 363.75380542344914Q1179.4595689649254 363.96161369557905 1168.5941650221343 371.0567818440135Q1157.7287610793437 378.151949992448 1148.5555102096105 388.60173739097917Q1139.3822593398768 399.02183789349164 1131.8417877511642 411.22315215711745Q1124.3310030584698 423.45415331676185 1118.809240399019 433.87425381927443Q1113.2874777395677 444.3240412178056 1109.6359895292853 451.21140109411016Q1105.9845013190034 458.09876097041473 1104.292348245946 458.09876097041473L1104.292348245946 458.09876097041473Q1104.084539973816 458.09876097041473 1102.4220737967767 457.148780297821Q1100.7596076197378 456.2284865212459 1099.9283745312182 455.81286997698606ZM1207.2168167422737 453.2894838154089L1207.2168167422737 453.2894838154089Q1202.1997313151378 449.1333183728113 1201.665367186804 440.9694219677089Q1201.1606899544886 432.835212458625 1203.9809450762514 422.6229202282423Q1206.8012001980137 412.3809411018411 1212.322962857465 401.2186681988647Q1217.8447255169158 390.0563952958883 1225.1477019374802 379.93316375356125Q1232.4803652540631 369.8099322112343 1241.0301913074068 361.764783390206Q1249.5800173607508 353.7196345691778 1258.129843414094 349.8603380867657Q1266.7093563634562 346.0010416043537 1274.8435658725402 347.1588305490773Q1282.9777753816243 348.31661949380094 1289.657326985799 356.65863727501466L1289.657326985799 356.65863727501466Q1293.843179324415 361.8835309742803 1294.6744124129345 367.1974853616014Q1295.5056455014542 372.51143974892267 1294.466604140805 378.0628893043923Q1293.4275627801553 383.58465196384344 1291.1119848907078 389.3142228954244Q1288.8260938972794 395.0734807230239 1286.6292635919062 400.8921123426606Q1284.432433286533 406.74043085831585 1283.0965229656986 412.7965576461009Q1281.730925748845 418.85268443388594 1282.5621588373642 425.1166194938009L1282.5621588373642 425.1166194938009Q1283.6012001980139 433.0430207307549 1289.657326985799 434.49767863566404Q1295.7134537735838 435.98202343659176 1304.1742191388716 433.6664455471445Q1312.63498450416 431.38055455371585 1322.0160436460233 426.36346912658024Q1331.397102787886 421.3463836994445 1339.4422516089144 416.35898516832737Q1347.4874004299427 411.34189974119175 1352.801354817264 407.5716639468354Q1358.1153092045852 403.83111504849745 1358.1153092045852 403.83111504849745L1358.1153092045852 403.83111504849745Q1363.9636277202403 402.5842654157182 1364.7058001207042 404.5436005529428Q1365.4182856251496 406.53262258618594 1362.3902222312572 410.39191906859793Q1359.391845733383 414.25121555101003 1353.3357189455978 419.17924029009004Q1347.2795921578127 424.07757813315146 1339.5609991929887 428.6790470160275Q1331.8127193321461 433.2508290028848 1323.0550850066725 437.0210647972412Q1314.2974506811988 440.761613695579 1305.9554328999852 442.12721091243253Q1297.583728222753 443.49280812928606 1290.191691114133 441.9194026403026Q1282.7699671094942 440.3459971513193 1277.9606899544888 434.49767863566404L1277.9606899544888 434.49767863566404Q1275.6747989610599 432.00397937010547 1274.5170100163364 429.510280104547Q1273.388907967631 426.98689394296986 1270.865521806054 425.1166194938009L1270.865521806054 425.1166194938009Q1267.7483977241059 428.0259353036193 1263.3547371133595 432.7461517705694Q1258.9907633986322 437.436681341501 1253.8549303874224 442.12721091243253Q1248.7487842722312 446.81774048336416 1243.01921334065 451.00359282198025Q1237.2599555130505 455.18944516059645 1231.2038287252653 457.2675278818952Q1225.1477019374802 459.3456106031941 1219.0025144616397 458.72218578680435Q1212.8573269857989 458.09876097041473 1207.2168167422737 453.2894838154089ZM1209.5027077357022 446.19431566697443L1209.5027077357022 446.19431566697443Q1211.372982184871 452.8738672711492 1217.8447255169158 452.3691900388338Q1224.316468848961 451.8348259104998 1232.8959817983232 445.98650739484464Q1241.4458078516668 440.1381888791894 1250.6190587214 430.0149573368623Q1259.8219964871519 419.8917257945354 1267.1249729077163 407.48260325877965Q1274.4279493282806 395.0734807230239 1278.2872458106926 381.2690740743962Q1282.1465422931046 367.49435432178694 1280.2762678439358 354.1352511134375L1280.2762678439358 354.1352511134375Q1275.2591824168003 350.1868939429698 1267.7483977241059 353.838382153252Q1260.2376130314115 357.4898703635342 1251.7768476661236 365.7428274566923Q1243.3160823008357 373.9660976538318 1235.0631252076773 385.3658657249567Q1226.839855010538 396.73594690006297 1220.5759199506228 408.3138363472992Q1214.3119848907081 419.8917257945354 1211.0761132246857 430.1337049209366Q1207.8402415586634 440.3459971513193 1209.5027077357022 446.19431566697443Z " fill="#ffffff" transform="matrix(0.6411005559543883,0,0,0.6411005559543883,0,53.90322610010699)"/></g></svg>